<?xml version="1.0" standalone="no"?><!DOCTYPE svg PUBLIC "-//W3C//DTD SVG 1.1//EN" "http://www.w3.org/Graphics/SVG/1.1/DTD/svg11.dtd"><svg t="1575369604288" class="icon" viewBox="0 0 1587 1024" version="1.1" xmlns="http://www.w3.org/2000/svg" p-id="6980" xmlns:xlink="http://www.w3.org/1999/xlink" width="198.375" height="128"><defs><style type="text/css"></style></defs><path d="M1306.84399 459.819887c0-3.968069 0.634891-7.936139 0.634891-11.904208A396.806944 396.806944 0 0 0 552.196543 277.764861a194.038596 194.038596 0 0 0-91.265597-23.173526 205.14919 205.14919 0 0 0-201.657289 170.626986A307.525382 307.525382 0 0 0 357.761141 1023.761916h949.082849a282.129737 282.129737 0 0 0 0.793614-564.180113z" fill="#878787" p-id="6981"></path><path d="M1255.893978 408.949237c0-3.968069 0.634891-7.936139 0.634891-11.904209a396.806944 396.806944 0 0 0-755.202976-169.992095 197.847942 197.847942 0 0 0-91.979849-23.173525 203.40324 203.40324 0 0 0-201.022398 170.626986 307.128575 307.128575 0 0 0 98.566845 597.908703h949.003487a281.73293 281.73293 0 0 0 0-563.46586z" fill="#C9C9C9" p-id="6982"></path><path d="M641.478106 821.628458c-36.347516 17.856312-83.964349 27.062234-142.136248 27.062234-75.393319 0-134.914361-22.459273-179.277377-67.45718S253.956444 676.079671 253.956444 600.686352c0-78.647136 24.443308-143.485391 74.044176-193.72115s113.089979-75.393319 191.181586-75.393319a349.190111 349.190111 0 0 1 123.010152 19.126094v103.169806a222.767418 222.767418 0 0 0-115.074013-29.760521c-48.965977 0-88.01178 15.872278-117.058049 46.981942s-43.648764 72.060141-43.648764 122.375262c0 48.886616 13.888243 88.56731 41.664729 118.32783s65.473146 44.997907 112.375727 44.997908a233.005038 233.005038 0 0 0 121.74037-32.379447v97.217701z m97.931954-224.910175c0-78.012245 23.094164-142.136247 68.726962-191.102225s106.502984-74.044176 181.261412-74.044175q107.137875 0 172.611021 71.425249c43.648764 47.616833 65.473146 108.407657 65.473146 183.166086 0 78.012245-22.538634 140.866465-68.171433 189.832442s-104.439588 72.695032-177.848872 72.695032c-71.42525 0-129.676509-23.808417-174.595056-70.710997s-67.457181-107.137875-67.45718-181.261412z m112.375726-5.952105c0 48.965977 11.904208 88.646671 35.077734 119.042084s55.552972 46.347051 96.58281 46.347051 74.044176-14.602496 97.217702-44.363017 34.998372-69.441215 34.998372-119.042083c0-52.219794-11.189956-93.249632-33.72859-123.645044s-54.203829-45.632799-95.868558-45.632798-74.758428 15.237387-98.566845 46.267689-35.712625 71.42525-35.712625 121.026118z" fill="#FFFFFF" p-id="6983"></path></svg>