<?xml version="1.0" standalone="no"?><!DOCTYPE svg PUBLIC "-//W3C//DTD SVG 1.1//EN" "http://www.w3.org/Graphics/SVG/1.1/DTD/svg11.dtd"><svg t="1575369628700" class="icon" viewBox="0 0 1433 1024" version="1.1" xmlns="http://www.w3.org/2000/svg" p-id="7108" xmlns:xlink="http://www.w3.org/1999/xlink" width="179.125" height="128"><defs><style type="text/css"></style></defs><path d="M716.8 1024C292.20864 1024 16.384 548.864 4.5056 528.95744a34.32448 34.32448 0 0 1 0-33.83296C15.89248 475.136 290.07872 0 716.8 0c424.50944 0 700.416 475.136 712.2944 495.04256a34.07872 34.07872 0 0 1 0 33.9968C1417.216 549.2736 1139.0976 1024 716.8 1024z" fill="#C9C9C9" p-id="7109"></path><path d="M512 512a204.8 204.8 0 1 0 204.8-204.8 204.8 204.8 0 0 0-204.8 204.8z" fill="#959595" p-id="7110"></path><path d="M477.83936 392.56064a85.36064 85.36064 0 0 0 170.72128 0 85.36064 85.36064 0 0 0-170.72128 0z" fill="#FFFFFF" p-id="7111"></path></svg>