<?xml version="1.0" standalone="no"?><!DOCTYPE svg PUBLIC "-//W3C//DTD SVG 1.1//EN" "http://www.w3.org/Graphics/SVG/1.1/DTD/svg11.dtd"><svg t="1575368926253" class="icon" viewBox="0 0 1024 1024" version="1.1" xmlns="http://www.w3.org/2000/svg" p-id="6842" xmlns:xlink="http://www.w3.org/1999/xlink" width="128" height="128"><defs><style type="text/css"></style></defs><path d="M512 0A512 512 0 1 1 0 512 512 512 0 0 1 512 0z" fill="#C9C9C9" p-id="6843"></path><path d="M50.2784 733.5424a514.0992 514.0992 0 0 0 240.1792 240.1792L552.96 711.3216 312.6784 471.04z" fill="#939393" p-id="6844"></path><path d="M429.5168 645.12l-14.4384-14.4384-126.8224 126.72a59.8528 59.8528 0 0 1 7.68 21.1456z m-229.5808 272.6912c5.4784 4.1984 11.008 8.2432 16.64 12.2368L465.5616 680.96l-14.3872-14.3872-251.2384 251.2384z m45.5168-189.7472a61.0816 61.0816 0 0 1 21.1456 7.68l126.8736-126.8224-14.592-14.4384z m-19.8656 120.832a61.0816 61.0816 0 0 1-21.1456-7.68l-43.4176 43.3664c5.12 4.6592 10.24 9.216 15.36 13.7216z m-131.6352-41.472c3.9936 5.632 8.0384 11.1616 12.2368 16.64l251.1872-251.1872-14.336-14.4384-249.088 248.9856z m88.832 12.1344a61.44 61.44 0 0 1-7.68-20.8384l-49.408 49.3568c4.5056 5.12 9.0624 10.24 13.7216 15.36z" fill="#C9C9C9" p-id="6845"></path><path d="M257.5872 956.3136q16.128 9.3184 32.8704 17.408L552.96 711.3216l-25.2416-25.2416z" fill="#777777" p-id="6846"></path><path d="M512 0c-10.24 0-20.48 0.4096-30.4128 0.9728-47.4624 128-129.8432 288.512-141.824 300.4928C311.808 329.472 373.76 434.4832 481.536 542.72s212.992 169.7792 240.9984 141.7728c15.104-15.36 171.5712-81.664 299.2128-124.6208 1.4336-15.7184 2.2528-31.5392 2.2528-47.616A512 512 0 0 0 512 0z" fill="#E0E0E0" p-id="6847"></path><path d="M225.28 768a30.72 30.72 0 1 1-30.72 30.72 30.72 30.72 0 0 1 30.72-30.72z" fill="#777777" p-id="6848"></path><path d="M362.24 302.7968l358.9632 358.9632a20.48 20.48 0 0 1 0 28.7232l-7.2192 7.168a274.1248 274.1248 0 0 1-387.6352-387.6352l7.2192-7.168a20.48 20.48 0 0 1 28.672 0z" fill="#939393" p-id="6849"></path><path d="M721.2032 661.76h-40.96a20.48 20.48 0 0 1 0 28.7232l-7.2192 7.168a273.152 273.152 0 0 1-173.312 79.4624 273.3568 273.3568 0 0 0 214.272-79.4624l7.2192-7.168a20.48 20.48 0 0 0 0-28.7232z" fill="#777777" p-id="6850"></path><path d="M580.7616 443.2384c105.6768 105.6768 168.96 213.5552 141.7728 240.9984s-135.3216-35.84-240.9984-141.7728S312.32 328.8576 339.7632 301.4656s135.3216 36.096 240.9984 141.7728z" fill="#959595" p-id="6851"></path><path d="M476.16 437.76c10.8544 4.4032 33.792 19.2512 62.3616 47.872s43.52 51.5584 47.9232 62.3104c-10.8544-4.4032-33.792-19.2512-62.3616-47.8208S480.4096 448.512 476.16 437.76m-5.12-11.6736a6.4 6.4 0 0 0-4.7104 1.5872c-7.9872 7.9872 14.6944 43.6736 50.688 79.6672 30.8224 31.0784 61.5424 52.2752 74.5984 52.2752a6.5024 6.5024 0 0 0 4.7104-1.5872c7.9872-7.9872-14.6944-43.6736-50.688-79.6672-31.1296-31.1296-62.0032-52.2752-74.9568-52.2752z" fill="#E0E0E0" p-id="6852"></path><path d="M358.4 310.1184c33.792 0 117.3504 49.408 211.7632 143.7184 50.2272 50.2784 92.16 102.4 118.4256 146.8928 29.2352 49.664 26.7264 69.4272 23.296 72.8576a12.2368 12.2368 0 0 1-7.9872 1.9968c-33.792 0-117.3504-49.408-211.7632-143.7696-50.2272-50.2272-92.16-102.4-118.4256-146.8416-29.2352-49.664-26.7264-69.4272-23.296-72.8576a11.9296 11.9296 0 0 1 7.9872-1.9968m0-15.0016a25.6 25.6 0 0 0-18.6368 6.3488C312.32 328.8576 375.8592 436.7872 481.536 542.72c89.0368 89.0368 179.6608 148.1216 222.4128 148.1216a25.6 25.6 0 0 0 18.5856-6.3488c27.392-27.392-35.84-135.3216-141.7728-240.9984C491.52 354.2016 401.1008 295.1168 358.4 295.1168z m-48.5376 117.1968C339.2512 467.9168 385.5872 528.7424 440.32 583.68c75.9808 75.9808 163.2256 134.7584 224.1024 153.2416 5.8368-3.584 11.5712-7.424 17.152-11.4688-52.9408-11.4176-144.64-66.8672-230.4-152.6272s-141.1584-177.408-152.6272-230.4c-3.9424 5.7344-7.7312 11.1616-11.3152 16.9984a321.7408 321.7408 0 0 0 22.6304 52.8896z" fill="#C9C9C9" p-id="6853"></path><path d="M235.52 757.76a30.72 30.72 0 1 1-30.72 30.72 30.72 30.72 0 0 1 30.72-30.72z" fill="#959595" p-id="6854"></path><path d="M652.544 716.0832c-4.6592 3.7888-9.472 7.424-14.3872 10.9056a271.0016 271.0016 0 0 0 26.368 9.8304c5.5296-3.4304 10.9568-7.0656 16.2304-10.8544l0.8192-0.6144a189.0304 189.0304 0 0 1-29.0304-9.2672z" fill="#757575" p-id="6855"></path></svg>