<?xml version="1.0" standalone="no"?><!DOCTYPE svg PUBLIC "-//W3C//DTD SVG 1.1//EN" "http://www.w3.org/Graphics/SVG/1.1/DTD/svg11.dtd"><svg t="1574824137761" class="icon" viewBox="0 0 1024 1024" version="1.1" xmlns="http://www.w3.org/2000/svg" p-id="13156" xmlns:xlink="http://www.w3.org/1999/xlink" width="128" height="128"><defs><style type="text/css"></style></defs><path d="M918.63847813 806.22410188a66.13784344 66.13784344 0 0 0-16.43974688-43.23044438l-65.69133187-108.98942906V410.52008469a294.39323438 294.39323438 0 0 0-63.12050719-170.012685 338.55729375 338.55729375 0 0 0-154.18181813-112.30444032l-2.70613125-0.947145C611.83086688 73.40380531 566.77378437 32 512.65116313 32h-2.30021157c-53.64904875 0-98.23255781 41.3361525-102.29175469 94.84989469l-0.40591968 0.13530656A339.50443969 339.50443969 0 0 0 250.96828719 239.0190275a296.87611031 296.87611031 0 0 0-64.94714532 171.29809687v243.55179751l-71.03594062 118.4608875c-12.92177625 20.97251625-12.92177625 47.35729406 0 68.32981031l0.33826594 0.54122625c14.41014844 21.85200844 37.95348844 35.99154375 64.00000031 38.42706094l0.87949219 0.06765375h169.20084562a161.91458812 161.91458812 0 0 0 154.11416531 112.23678656c2.84143781 0 5.68287563-0.06765281 8.5243125-0.20296031A160.2503175 160.2503175 0 0 0 672.98942938 879.69556062h168.72727218a80.57505281 80.57505281 0 0 0 76.71881625-71.17124812l0.13530657-1.15010531 0.06765375-1.15010532zM512.04228313 93.632135c13.19238938 0 25.708245 6.02114156 33.89429156 16.43974688-22.52854125-2.30021156-45.26004187-2.30021156-67.78858313-1e-8a43.09513781 43.09513781 0 0 1 33.89429157-16.43974687z m9.74207249 816.98097281c-2.57082469 0-5.14164938-0.13530656-7.71247406-0.40591969l-1.75898531-0.20295937-1.75898531 0.20295937c-2.6384775 0.27061313-5.34460875 0.40591969-7.98308625 0.40591969-24.69344625 0.06765281-47.96617313-11.23044375-63.18816094-30.64693406h144.64270594a77.92980938 77.92980938 0 0 1-62.24101407 30.64693406z m-327.57716718-112.37209312L265.44608844 680.11839313c4.8033825-7.84777969 3.58562344-15.83086688 2.90909156-20.09302313-0.06765281-0.40591969-0.13530656-1.01479875-0.20296031-1.35306562V411.39957687c0-39.10359375 16.98097219-80.10148031 48.98097281-118.4608875 30.37632094-36.39746344 72.65961938-68.05919625 119.00211375-89.16701906 20.16067688-9.1331925 42.01268531-13.80126844 64.13530687-13.73361562 3.45031687 0 6.9682875 0.13530656 10.41860438 0.33826687l1.0824525 0.06765281 1.0824525-0.06765281c2.84143781-0.13530656 5.75052844-0.20295937 8.59196625-0.20296031 21.17547563 0 42.14799188 3.92389031 61.76744156 11.70401719l-0.20295937 0.54122625 7.64482031 2.6384775 6.63002063 2.97674437 0.33826687-0.4735725A242.88879469 242.88879469 0 0 1 754.64693469 412.21141625v246.799155c0 0.33826594-0.13530656 1.0824525-0.13530657 1.556025-0.4735725 4.19450344-1.42071844 12.04228313 3.17970375 19.61945062l71.23890094 118.19027438H194.20718844z" p-id="13157"></path></svg>