<?xml version="1.0" standalone="no"?><!DOCTYPE svg PUBLIC "-//W3C//DTD SVG 1.1//EN" "http://www.w3.org/Graphics/SVG/1.1/DTD/svg11.dtd"><svg t="1574824128523" class="icon" viewBox="0 0 1024 1024" version="1.1" xmlns="http://www.w3.org/2000/svg" p-id="13042" xmlns:xlink="http://www.w3.org/1999/xlink" width="128" height="128"><defs><style type="text/css"></style></defs><path d="M980.56275219 733.0773125a42.59719594 42.59719594 0 0 0-29.27591719-14.63795906l-12.50478938-0.88269094v2.72163h-44.35522125c-2.280285-6.76729781-5.07547313-13.38748031-8.38556437-19.71343125l40.67734219-40.75090031a42.979695 42.979695 0 0 0 0-60.53788969l-0.36778782-0.36778875c-16.69757063-16.32978281-43.54608844-16.18266844-59.94942937 0.36778875l-41.11868813 40.67734219c-6.17883656-3.38364844-12.57834656-6.25239469-19.19852906-8.679795V574.11937813c0-23.46486844-19.05141375-42.58984031-42.58983937-42.6633975a42.58984031 42.58984031 0 0 0-42.58984032 42.6633975v56.93356781c-6.76729781 2.280285-13.31392219 5.07547313-19.63987406 8.38556437l-40.75090031-40.8244575a42.22205156 42.22205156 0 0 0-30.08505094-12.43123125h-0.07355719c-11.401425 0-22.06727438 4.48701281-30.08505093 12.50478844-16.62401344 16.69757063-16.62401344 43.84031906 0 60.4643325l40.603785 40.8244575c-3.31009125 6.32595188-6.10527938 12.94613437-8.38556438 19.71343219h-57.37491375a42.6633975 42.6633975 0 1 0 0.07355719 85.326795h57.88981687c2.280285 6.76729781 5.07547313 13.38748031 8.38556438 19.71343218l-40.67734219 40.75090032c-16.62401344 16.69757063-16.62401344 43.84031906 0.14711438 60.61144687a42.17791781 42.17791781 0 0 0 30.01149375 12.43123125h0.14711531c11.401425 0 22.06727438-4.48701281 30.08505094-12.57834656l40.603785-40.75090031c6.32595188 3.31009125 12.87257719 6.10527938 19.63987406 8.38556437v55.68309c0 23.46486844 19.05141375 42.58984031 42.58984031 42.6633975 23.46486844 0 42.58984031-19.19852906 42.58983938-42.6633975v-53.18213156c6.76729781-2.280285 13.31392219-5.07547313 19.639875-8.38556438l40.30955437 40.45666969 0.36778781 0.36778782a42.3471 42.3471 0 0 0 30.08505094 12.43123125h0.07355813c11.401425 0 22.06727438-4.48701281 30.15860812-12.57834657 16.62401344-16.69757063 16.62401344-43.84031906 0.2206725-60.24365906l-41.63359125-44.5023375c3.38364844-6.39951 6.25239469-13.09324969 8.53267969-20.00766187h56.86001062c21.11102625-1.47115125 38.1028275-18.53651062 39.64753688-39.57397875 0.80913375-11.32786781-2.79518813-22.361505-10.29806156-30.96774188z m-167.04926813 28.68745687c0 27.95188125-22.72929281 50.75473125-50.75473125 50.75473125-27.95188125 0-50.75473125-22.72929281-50.75473125-50.75473125 0-27.95188125 22.72929281-50.75473125 50.75473125-50.75473218 28.02543844 0 50.75473125 22.72929281 50.75473125 50.75473218zM695.38000813 168.52287219c-12.79901906-7.94421844-29.27591719-8.01777656-42.00138 0-9.26825531 5.73749156-15.88843781 15.00574687-18.75718313 25.67159531h-1.47115125l-0.14711531 11.54854031c-0.14711531 15.22641937 7.35575813 29.20236 20.3018925 37.51436719 6.39951 3.97210969 13.68171 5.95816406 21.03746812 5.95816406 7.28220094 0 14.56440094-1.98605437 20.96391094-5.95816406 12.57834656-7.72354594 20.37545062-22.06727438 20.37545063-37.36725187 0-15.37353469-7.79710406-29.643705-20.3018925-37.36725094zM573.93644 168.52287219a40.14772781 40.14772781 0 0 0-42.00137906-0.07355813c-12.57834656 7.72354594-20.37545062 21.99371719-20.37545063 37.29369375-0.14711531 15.22641937 7.35575813 29.20236 20.30189344 37.44080907 6.39951 3.97210969 13.68171 5.95816406 21.03746812 5.958165 7.28220094 0 14.63795906-1.98605437 20.96391094-5.958165 12.57834656-7.72354594 20.37545062-22.06727438 20.37544969-37.36725094s-7.79710406-29.57014781-20.3018925-37.29369375z" p-id="13043"></path><path d="M515.45816281 823.33246531H116.84962719V378.38265312h754.92146156v117.47145751c0 24.27400219 18.83074125 43.98743437 41.92782187 43.98743437s41.92782187-19.71343219 41.92782188-43.98743437V75.98743438c0-11.6220975-4.26633937-22.5821775-11.98988625-30.82062751A41.3025825 41.3025825 0 0 0 913.6253525 32H74.84824719C63.52038031 32.07355719 52.56030031 36.92835781 44.98386969 45.240365A44.79656719 44.79656719 0 0 0 32.99398344 75.98743438v791.18534906a44.9436825 44.9436825 0 0 0 11.91632812 30.89418469 41.19224625 41.19224625 0 0 0 30.01149375 13.240365h440.5363575c23.09708063 0 41.92782187-19.71343219 41.92782094-43.98743438 0-24.27400219-18.83074125-43.98743437-41.92782094-43.98743344z m-398.68209375-532.99823812V120.048425h754.9214625v170.28580219H116.77606906z" p-id="13044"></path><path d="M816.235115 168.52287219a40.14772781 40.14772781 0 0 0-42.00138-0.07355813C761.65538844 176.17286 753.85828531 190.44303125 753.85828531 205.74300781c-0.14711531 15.22641937 7.35575813 29.20236 20.3018925 37.44080906a39.73580531 39.73580531 0 0 0 42.00137906 0.07355813c12.57834656-7.72354594 20.37545062-22.06727438 20.37545063-37.36725188 0-15.37353469-7.79710406-29.643705-20.3018925-37.36725093z" p-id="13045"></path></svg>