<?xml version="1.0" standalone="no"?><!DOCTYPE svg PUBLIC "-//W3C//DTD SVG 1.1//EN" "http://www.w3.org/Graphics/SVG/1.1/DTD/svg11.dtd"><svg t="1574824109252" class="icon" viewBox="0 0 1024 1024" version="1.1" xmlns="http://www.w3.org/2000/svg" p-id="12818" xmlns:xlink="http://www.w3.org/1999/xlink" width="128" height="128"><defs><style type="text/css"></style></defs><path d="M832.44683375 102.30929281c-21.85017094 0-43.43224219 4.959855-63.00356063 14.61146438-117.89708906-87.13258406-272.12176219-108.11142938-408.91991906-55.56377906a42.22579031 42.22579031 0 0 0-23.86092281 57.70858031c14.14228875 33.71360719 55.16162813 18.90106781 55.16162813 18.90106875a347.79306 347.79306 0 0 1 316.42533 36.46163531c-39.34371281 68.63366625-15.54981469 156.23542594 53.08385062 195.51211313s156.23542594 15.54981469 195.51211406-53.08385157 15.54981469-156.23542594-53.08385156-195.51211312a142.77679219 142.77679219 0 0 0-71.31466875-19.03511813z m0 206.97339938c-35.18815875 0-63.67381125-28.55267719-63.67381125-63.67381125 0-35.18815875 28.55267719-63.67381125 63.67381125-63.67381125s63.67381125 28.55267719 63.67381125 63.67381125c0 35.18815875-28.4856525 63.67381125-63.67381125 63.67381125z m110.45730656 133.64797875c-0.80430094-23.25769781-20.30859469-41.55553969-43.5662925-40.75123969-1.34050125 0.06702469-2.6810025 0.13405031-4.02150375 0.33512531-36.39460969 3.15017812-34.85303344 46.71646969-34.85303343 46.71647063 6.76953188 134.85442969-65.08133813 261.46477687-184.38595219 324.73643812l-31.30070531 14.07526313v0.13405031c-32.97633187-71.91789469-117.96411375-103.48669969-189.88200844-70.51036781-71.91789469 32.97633187-103.48669969 117.96411375-70.51036781 189.8820075s117.96411375 103.48669969 189.88200843 70.51036781a143.25937312 143.25937312 0 0 0 81.97165406-108.91572937c31.76988094-10.65698531 62.33331-24.66522375 91.15408782-41.75661563a429.48320906 429.48320906 0 0 0 195.51211312-384.45577031z m-428.42421281 468.57222656c-35.18815875 0-63.67381125-28.55267719-63.67381125-63.67381125 0-35.18815875 28.55267719-63.67381125 63.67381125-63.67381125 35.18815875 0 63.67381125 28.55267719 63.67381125 63.67381125 0 35.18815875-28.55267719 63.67381125-63.67381125 63.67381125z m-195.71318906-161.93255625a347.72603531 347.72603531 0 0 1-144.17091375-344.50883156l4.02150375-16.68924094c4.22257875 0.40215 8.57920781 0.60322594 12.86881312 0.603225 79.22362594 0.06702469 143.43363844-64.07596219 143.50066313-143.29958812 0.06702469-79.22362594-64.07596219-143.43363844-143.29958813-143.50066313C112.53061531 102.10821781 48.25357812 166.25120469 48.25357812 245.40780594a143.23256344 143.23256344 0 0 0 54.49137751 112.60210781c-6.23333062 23.25769781-10.92508594 46.91754562-13.94121375 70.77846844a429.44299406 429.44299406 0 0 0 184.58702812 389.88480094 42.24589781 42.24589781 0 0 0 58.91503219-9.58458469c0.80430094-1.07240062 1.54157625-2.21182687 2.21182687-3.35125313 19.70536875-30.764505-15.75089063-56.16700406-15.75089062-56.16700406zM191.55316625 181.93506969c35.18815875 0 63.67381125 28.55267719 63.67381125 63.67381125s-28.55267719 63.67381125-63.67381125 63.67381125-63.67381125-28.55267719-63.67381125-63.67381125c-0.06702469-35.18815875 28.4856525-63.67381125 63.67381125-63.67381125z" p-id="12819"></path></svg>