<?xml version="1.0" standalone="no"?><!DOCTYPE svg PUBLIC "-//W3C//DTD SVG 1.1//EN" "http://www.w3.org/Graphics/SVG/1.1/DTD/svg11.dtd"><svg t="1574824071225" class="icon" viewBox="0 0 1024 1024" version="1.1" xmlns="http://www.w3.org/2000/svg" p-id="12365" xmlns:xlink="http://www.w3.org/1999/xlink" width="128" height="128"><defs><style type="text/css"></style></defs><path d="M924.01402156 32.57104156L625.71973438 88.53978781c-18.51226406 3.45562313-33.69232125 21.72105656-33.69232126 40.60356656v11.60101875H404.12792844c-75.15979406 0-142.72955906-33.63061406-188.9485125-86.32885968v0.30853781c-6.29416969-6.9729525-15.30347156-11.47760438-25.42350938-11.47760344a34.30939688 34.30939688 0 0 0-34.30939687 34.30939688c0 10.49028281 4.81318875 19.74641531 12.21809437 26.040585 16.47591562 18.14201906 35.111595 34.18598156 55.28996344 48.25530281C130.57836781 196.03433656 66.2791025 290.32347031 66.2791025 399.1138775v382.03143094c0 18.88251 15.42688687 34.30939688 34.30939687 34.30939594s34.30939688-15.42688687 34.30939688-34.30939594V399.1138775c0-103.29843562 77.1961425-189.19534219 176.73041812-203.38807875v-0.61707563c29.31108563 9.00930187 60.28827469 14.19273563 92.56132219 14.19273657h49.11920813v45.54017062L267.01375719 362.39788625c-10.92223594 6.29416969-16.90786781 17.83348125-16.96957594 29.68133063h-0.1851225v554.19549c0 25.1149725 20.54861344 45.72529313 45.72529312 45.72529312h384.00607125c25.1149725 0 45.72529313-20.54861344 45.72529313-45.72529312V392.07921688h-0.1851225c-0.06170719-11.84784937-6.04734-23.38716094-16.969575-29.68133063L521.86593031 254.84163031v-45.54017062H592.02741312v11.23077375c0 18.88251 15.18005719 37.14794438 33.69232125 40.60356656L924.01402156 317.10454625c18.51226406 3.45562313 33.69232125-9.13271719 33.69232125-27.95351906V60.58626875c0-18.88251-15.11834906-31.47084938-33.69232125-28.01522719zM656.69692344 741.96101469H559.56924219c-9.441255 0-17.15469844-7.71344344-17.15469844-17.15469844V599.10804125c0-9.441255 7.71344344-17.15469844 17.15469844-17.15469844h97.12768125v160.00767188z m0-330.07367438v101.50891594H508.10514687c-18.88251 0-34.30939688 15.42688687-34.30939593 34.30939688v228.56475843c0 18.88251 15.42688687 34.30939688 34.30939593 34.30939688h148.59177657v90.0313125c0 12.58833938-10.30516031 22.8317925-22.83179344 22.83179344H341.24793687a22.89350062 22.89350062 0 0 1-22.83179249-22.83179344v-488.72378063l169.14038906-97.68304875 169.14039 97.68304875z m246.15140906-174.20040843c0 9.441255-7.59002813 15.79713187-16.90786781 14.13102843l-224.49206063-39.73966125c-9.2561325-1.66610344-16.90786781-10.67540625-16.90786781-20.11666031v-34.30939687c0-9.441255 7.59002813-18.51226406 16.90786781-20.11666125l224.49206063-39.73966032c9.2561325-1.66610344 16.90786781 4.75148156 16.90786781 14.13102844v125.75998313z" p-id="12366"></path></svg>