<?xml version="1.0" standalone="no"?><!DOCTYPE svg PUBLIC "-//W3C//DTD SVG 1.1//EN" "http://www.w3.org/Graphics/SVG/1.1/DTD/svg11.dtd"><svg t="1574822466392" class="icon" viewBox="0 0 1080 1024" version="1.1" xmlns="http://www.w3.org/2000/svg" p-id="11356" xmlns:xlink="http://www.w3.org/1999/xlink" width="210.9375" height="200"><defs><style type="text/css"></style></defs><path d="M72.01870063 538.62926563a39.71949469 39.71949469 0 0 1-28.87330594-12.34221563 40.03366031 40.03366031 0 0 1 1.19682093-56.54979L474.30014 57.73165062C491.57924281 41.12576 514.39364188 32 538.62926563 32c24.23562375 0 47.05002375 9.12576 64.32912656 25.65684938l429.95792343 412.08041062c15.93267844 15.25946719 16.45628813 40.61711062 1.19682094 56.54979a40.03366031 40.03366031 0 0 1-56.54978906 1.19682094L547.68022438 115.47826063c-4.78728375-4.56288-13.23983156-4.63768125-18.02711532-1e-8L99.69518469 527.55867219a39.98877938 39.98877938 0 0 1-27.67648407 11.07059344z" p-id="11357"></path><path d="M845.31463344 992H685.31463313c-51.46330031 0-93.35203406-41.88873281-93.35203407-93.35203406V725.33333375H485.29593312v173.31463219c0 51.46330031-41.88873281 93.35203406-93.35203406 93.35203406H232.0187c-51.46330031 0-93.35203406-41.88873281-93.35203313-93.35203406V552.01870063c0-22.06638656 17.87751281-40.01870063 40.01869969-40.01870063s40.01870063 17.87751281 40.01870063 40.01870063v346.62926531c0 7.33052812 5.98410469 13.31463281 13.31463281 13.31463375h160.00000031c7.33052812 0 13.31463281-5.98410469 13.31463281-13.31463375V685.38943438A40.01870063 40.01870063 0 0 1 445.35203375 645.37073375h186.62926594a40.01870063 40.01870063 0 0 1 40.01870062 40.01870063v213.33333281c0 7.33052812 5.98410469 13.31463281 13.31463281 13.31463375h160.00000032c7.33052812 0 13.31463281-5.98410469 13.31463281-13.31463375V552.09350188c0-22.06638656 17.87751281-40.01870063 40.01869969-40.01870063s40.01870063 17.87751281 40.01870062 40.01870063v346.62926531c-0.07480125 51.38849906-41.88873281 93.27723281-93.35203312 93.27723281zM938.96587156 298.66666625a40.01870063 40.01870063 0 0 1-40.01869968-40.01869969V111.96259906H752.33660562c-22.06638656 0-40.01870063-17.87751281-40.01869968-40.01869969S730.19541875 32 752.33660562 32h146.6853675c44.13277219 0 79.96259906 35.90462813 79.96259907 79.96259906V258.64796656c0 22.06638656-17.95231406 40.01870063-40.01870063 40.01869969z" p-id="11358"></path></svg>