<svg t="1574822842333" class="icon" viewBox="0 0 1024 1024" version="1.1" xmlns="http://www.w3.org/2000/svg" p-id="11642" width="128" height="128" xmlns:xlink="http://www.w3.org/1999/xlink"><defs><style type="text/css"></style></defs><path d="M533.99389156 764.73832625v12.5782725a22.2358275 22.2358275 0 0 1-21.95867906 22.52718938 22.4277 22.4277 0 0 1-22.24293469-22.52718938v-12.50720906H339.49257781c-20.11102406 0.07106344-36.52673531-16.1314575-36.59779968-36.24248063V429.67303719c0-57.34839656 23.30889-109.43807906 61.25689968-147.67034344a209.23281656 209.23281656 0 0 1 147.95459813-61.25689875c57.56158687 0 109.72233375 23.59314469 147.67034344 61.25689875C697.72462906 320.09283031 721.31777281 372.18251375 721.31777281 429.53091031v298.46748938a36.89626688 36.89626688 0 0 1-37.09524469 36.66886218H533.99389156z m-428.15871937 190.59281063c0 19.89783281-16.77103031 36.59779969-37.16630907 36.59779968A36.97443656 36.97443656 0 0 1 32 955.33113688V511.75159719c0-131.75207719 54.22159406-252.20502844 141.13248469-339.11591907l1.847655-1.56340124C262.24634938 85.15627813 381.064835 32.00063937 512.10627594 32.00063937c127.20400125-0.21319125 249.22035375 50.52628219 338.83166437 140.91929344v-0.21319125c86.91089062 86.91089062 141.06142031 207.43490531 141.06142032 339.11591907v443.57953968c0 19.89783281-16.77103031 36.59779969-37.16630907 36.59779969-20.11102406-0.21319125-36.45567188-16.48677562-36.59779968-36.59779969V511.75159719c0-111.56998969-45.83607844-212.90680875-119.45805938-286.45772625-73.62198094-73.83517219-174.67454531-119.45805938-286.74198-119.45805938-111.35679937 0-211.84085344 45.05437781-285.17858062 117.32614875l-1.56340032 2.13191063C151.52912281 298.91585187 105.90623563 400.18160656 105.90623563 511.75159719l-0.07106344 443.57953968z m501.99389156-621.3808875c-53.01351094-52.72925625-138.645255-52.72925625-191.72983031 0h-0.21319125c-23.806335 24.87229031-39.51141094 58.41435188-39.51141 95.58066093v261.86968969H647.41153719V429.53091031c0-37.16630906-15.49188375-70.70836969-39.58247344-95.58066093z m-118.03678594 597.07710656a22.55561438 22.55561438 0 0 1 22.24293469-22.24293469c12.15189094 0.21319125 21.95868 10.09104375 22.0297425 22.24293469v24.30378094c-0.07106344 12.08082656-9.94891594 21.81655219-22.0297425 21.74548875-12.00976312 0-22.24293469-9.66466125-22.24293469-21.74548875v-24.30378094z m0-88.26110063a22.38506156 22.38506156 0 0 1 22.24293469-22.52718937c12.29401781 0.14212781 22.10080687 10.16210719 22.0297425 22.45612594V866.3594c0.07106344 12.08082656-9.59359781 21.88761562-21.67442438 21.95867906h-0.35531812a22.0013175 22.0013175 0 0 1-22.24293469-21.81655219v-23.73527156z"></path></svg>