<?xml version="1.0" standalone="no"?><!DOCTYPE svg PUBLIC "-//W3C//DTD SVG 1.1//EN" "http://www.w3.org/Graphics/SVG/1.1/DTD/svg11.dtd"><svg t="1574824097553" class="icon" viewBox="0 0 1024 1024" version="1.1" xmlns="http://www.w3.org/2000/svg" p-id="12705" xmlns:xlink="http://www.w3.org/1999/xlink" width="128" height="128"><defs><style type="text/css"></style></defs><path d="M492.96735781 319.06856375h99.22897782V538.70116438c0 19.99482563 15.95860312 36.20181094 35.51875875 36.20181093s35.51875781-16.26908156 35.51875781-36.20181094V319.06856375h99.1668825c8.507115-0.12419156 16.39327313-4.78137094 20.49159094-12.17076281 4.22250938-7.38939188 4.22250938-16.64165625 0.12419156-24.09314344L648.26878063 44.41914594a23.64605437 23.64605437 0 0 0-20.61578251-12.41914594c-8.63130656 0-16.57956 4.78137094-20.6157825 12.29495437L472.41367063 282.74256125a24.652005 24.652005 0 0 0-0.06209532 24.09314344c4.16041406 7.45148813 12.04657219 12.17076281 20.6157825 12.23285906zM374.67499063 734.11642906h-0.12419157c-19.7464425 0.24838313-35.70504563 16.51746469-35.51875781 36.26390719v185.35575656c0 19.99482563 15.89650688 36.26390719 35.51875781 36.26390719 19.62225094 0 35.58085406-16.26908156 35.58085407-36.26390719v-185.231565c0.12419156-9.62483813-3.53945625-18.69081469-10.24579594-25.521345a35.35730906 35.35730906 0 0 0-25.21086656-10.86675375zM627.77718969 734.11642906h-0.12419156c-19.7464425 0.24838313-35.64294938 16.51746469-35.4566625 36.26390719v185.35575656c0 19.99482563 15.89650688 36.26390719 35.51875875 36.26390719 19.62225094 0 35.51875781-16.26908156 35.51875781-36.26390719v-185.231565c0.31047844-19.80853781-15.58602844-36.07761937-35.4566625-36.38809875z" p-id="12706"></path><path d="M979.67369656 616.44501969l-119.90685562-70.85122969a23.57774906 23.57774906 0 0 0-23.84476125 0.06209625c-7.26520031 4.34670094-11.86028437 12.35705062-11.86028438 20.86416562v34.64941782H221.0501525c-53.65071187 0-100.4708925-37.07115094-114.0077625-90.2250975-13.59896531-52.65717938 9.74902969-108.48124219 56.81759437-135.74126719 47.19275531-26.82535594 105.81112594-17.69728313 142.57179751 22.29236719 37.07115094 39.86545969 42.97024594 100.34670094 14.40620999 147.10478625-9.68693437 16.82794312-4.4708925 38.37516188 11.86028438 48.99353156 16.14489 10.30789125 37.94049187 5.58861563 48.55886156-10.74256125 45.32988375-74.32858969 35.82923719-171.01164281-23.16170719-235.09443656-58.92884906-64.08279469-153.00388125-78.86157844-228.76067249-35.82923719C54.07473219 354.5873225 16.63100656 443.88098281 38.24032062 529.13842156c21.67141031 85.13324719 96.86934 144.55886156 182.99611876 144.55886157h602.9495475v34.46313093c0 8.507115 4.53298875 16.51746469 11.86028437 20.86416563 3.66364781 2.17335094 7.82406187 3.29107406 11.98447594 3.29107406 4.09831781 0 8.19663656-1.05562781 11.86028437-3.1668825l119.84476125-70.78913344c7.45148813-4.34670094 12.1086675-12.35705062 12.04657125-20.92626093 0-8.69340187-4.65717938-16.70375156-12.1086675-20.98835719z" p-id="12707"></path></svg>