<?xml version="1.0" standalone="no"?><!DOCTYPE svg PUBLIC "-//W3C//DTD SVG 1.1//EN" "http://www.w3.org/Graphics/SVG/1.1/DTD/svg11.dtd"><svg t="1574824044221" class="icon" viewBox="0 0 1024 1024" version="1.1" xmlns="http://www.w3.org/2000/svg" p-id="12027" xmlns:xlink="http://www.w3.org/1999/xlink" width="128" height="128"><defs><style type="text/css"></style></defs><path d="M512 256.65154437c-164.56955437 0-298.04864719 133.41350063-298.11423844 297.91746375v223.47089344h74.51216157V554.56900813h-0.39355032c0.06559125-123.44356406 100.15851281-223.47089344 223.66766907-223.47089344 123.50915531 0 223.60207687 100.09292156 223.60207687 223.60207687v223.27411875h74.51216156V569.65509687c0.26236687-4.98496875 0.39355031-9.9699375 0.39355032-14.95490531-0.06559125-164.56955437-133.47909281-298.04864719-298.17983063-298.04864719" p-id="12028"></path><path d="M512 509.90106594c-41.12599031 0-74.44657031 33.32057906-74.44657031 74.44657031v74.51216156h148.95873187V584.34763625c0-41.12599031-33.38617125-74.44657031-74.51216156-74.44657031" p-id="12029"></path><path d="M800.20989313 992H223.79010687C118.05629937 992 32 906.00929187 32 800.20989313V223.79010687C32 118.05629937 118.05629937 32 223.79010687 32h576.41978625c105.7338075 0 191.79010687 86.05629937 191.79010688 191.79010687v576.41978625c0 105.79939875-85.99070812 191.79010687-191.79010688 191.79010688zM223.79010687 106.38097813c-64.73899969 0-117.40912781 52.67012812-117.40912874 117.40912874v576.41978625c0 64.73899969 52.67012812 117.40912781 117.40912875 117.40912875h576.41978625c64.73899969 0 117.40912781-52.67012812 117.40912875-117.40912875V223.79010687c0-64.73899969-52.67012812-117.40912781-117.40912875-117.40912874H223.79010687z" p-id="12030"></path></svg>