<?xml version="1.0" standalone="no"?><!DOCTYPE svg PUBLIC "-//W3C//DTD SVG 1.1//EN" "http://www.w3.org/Graphics/SVG/1.1/DTD/svg11.dtd"><svg t="1574824091812" class="icon" viewBox="0 0 1321 1024" version="1.1" xmlns="http://www.w3.org/2000/svg" p-id="12590" xmlns:xlink="http://www.w3.org/1999/xlink" width="165.125" height="128"><defs><style type="text/css"></style></defs><path d="M245.21043687 562.58624187c0 57.12504281 46.45476094 103.57980375 103.57980375 103.57980376S452.30498094 619.64622125 452.30498094 562.58624187c0-57.12504281-46.45476094-103.57980375-103.57980282-103.57980374s-103.51474031 46.45476094-103.51474125 103.57980375z m121.79735719 0c0 10.2148425-8.00271094 18.28261594-18.28261594 18.28261594s-18.28261594-8.00271094-18.28261593-18.28261594 8.00271094-18.28261594 18.28261593-18.28261593c10.0847175 0 18.28261594 8.19789938 18.28261594 18.28261593zM927.45781062 305.52355156c-189.462555 0-343.59606938 154.13351438-343.59606843 343.53100594 0 189.13724156 154.13351438 342.9454425 343.59606844 342.9454425s343.59606938-154.13351438 343.59606937-343.53100688c0-189.13724156-154.13351438-342.9454425-343.59606938-342.94544156z m1e-8 601.24432407c-142.42222969 0-258.29888156-115.87665187-258.29888157-258.2988825 0-142.42222969 115.87665187-258.29888156 258.29888156-258.29888157s258.29888156 115.87665187 258.29888157 258.29888157c0 142.42222969-115.87665187 258.29888156-258.29888156 258.2988825z" fill="#040000" p-id="12591"></path><path d="M1174.17553344 630.51169062c-4.09894969-6.24601875-12.23178563-10.0847175-21.27549938-10.08471656h-68.9664525l-24.59369718-53.48153156c-3.96882375-9.82446656-15.54998344-15.74517094-27.39139219-14.11860375h-14.57404313c-12.29684813-1.62656719-22.44662813 5.98576781-26.15520093 14.70416813l-27.65164407 90.89257875-42.68112468-144.37411126-0.26025094-0.84581437c-3.77363625-10.0847175-15.48492-16.26567281-27.06607969-14.57404312h-20.29955906c-12.7522875 0-21.27549937 8.26296188-23.29244344 15.61504593l-31.55540437 113.20908188c-6.83158219-8.84852625-19.25855625-8.84852625-23.74788282-8.84852625h-97.46391c-13.98847875 0-24.98407313 9.62927812-24.98407312 21.92612718v13.40291438c0 12.29684813 10.99559437 21.92612719 24.98407312 21.92612625h68.38088719l24.59369719 52.96103062c3.96882375 9.62927812 15.94035938 15.74517094 27.45645562 14.05354032h12.687225c11.90647219 1.56150469 24.33344625-5.07489 28.172145-15.22466907l29.14808532-93.43002375 43.39681406 146.19586594 0.45543937 1.30125375c3.64351031 8.58827531 12.62216156 14.11860375 22.77194157 14.11860375h18.86818031c12.55709906 0 20.68993594-9.82446656 21.79600125-19.71399562l34.15791281-110.0860725c5.07489 7.5472725 15.15960656 11.77634719 25.37444906 10.34496843h97.1385975c13.98847875 0 24.98407313-9.62927812 24.98407313-21.92612718v-11.71128375c0.91087781-4.09894969 0.0650625-8.45814937-2.40732-12.23178656z" fill="#040000" p-id="12592"></path><path d="M545.99525562 713.076245l-1.49644125-10.41003H226.92782094c-10.279905 0-18.28261594-8.00271094-18.28261594-18.28261594v-152.24669625c0-50.22839719 26.09013937-75.92815969 92.97458531-91.67333156 75.47272125-17.9573025 195.77363625-17.9573025 312.10572656-17.9573025h5.98576782l3.64351031-4.68451312c17.63198906-22.70687906 36.63029437-42.29074875 56.474415-58.29617063l26.87089125-21.66587625h-34.48322531c-12.42697406 0-25.30938656 0-39.62317875-0.58556437h-30.44933906c-181.6550325 0-276.19112156 12.16672313-320.30362594 20.75499843 16.26567281-85.55743781 32.27109469-147.95255812 44.24262937-172.41613031 13.85835281-27.26126719 117.76347-67.66519781 296.75093157-67.66519781 179.76821437 0 283.28295469 40.27380563 296.62080656 67.40494687 6.83158219 14.18366625 14.96441906 40.14367969 23.48763187 74.95221938l2.08200563 8.52321281 8.71840031 0.71568937c23.29244344 1.95188062 44.04744188 5.0098275 63.50118656 9.49915313l18.93324282 4.35920062-4.35920063-18.93324375c-13.01253844-56.53947844-24.91901062-94.92646594-36.23991844-117.17790562-19.97424563-40.59911906-70.39783125-71.24364656-149.96950125-91.15282969C782.88851281 40.58827531 703.51202937 32 622.24872969 32 540.39986469 32 461.02338219 40.58827531 398.82344937 56.13825781c-78.72585562 19.71399563-129.14944125 50.29345969-149.90443874 91.02270469-17.11148719 34.15791281-35.65435406 105.27143344-55.17316219 211.32361875h-6.76651969c-3.05794688-27.39139313-26.28532687-48.731955-54.45747188-48.731955H86.84784781C56.59369719 309.75262625 32 334.34632344 32 364.60047406v12.16672313c0 29.73364969 25.11419813 54.84784781 54.84784781 54.84784875h45.41375813c2.537445 0.58556438 5.59539094 1.23619125 9.36902812 1.23619125h10.67028094c-19.45374469 27.19620469-28.95289688 59.98780031-28.95289781 99.28566562v152.31175875c0 41.0545575 24.13825781 77.81497781 60.89867906 94.14571313v58.10098312c0 40.33886812 32.79159562 73.13046469 73.13046375 73.13046375H318.27583906c40.33886812 0 73.13046469-32.79159562 73.13046375-73.13046375v-48.73195593h173.13181969l-4.94476406-15.81023344c-6.18095531-19.64893219-10.73534438-39.49305281-13.59810282-59.07692344zM1198.44391719 381.12639781l20.82006094 20.82006094V366.42222969c0-30.25415156-24.59369719-54.84784781-54.84784782-54.84784781h-57.77566968l34.02778781 22.38156562c20.55981 13.53303938 39.94849219 29.34327375 57.77566875 47.17045031z" fill="#040000" p-id="12593"></path><path d="M547.36157281 326.21348656c6.37614375 0 12.62216156-2.14706906 17.69705157-6.11589281L721.66452031 208.5801425c13.40291437-10.279905 16.33073531-28.88783438 6.50626969-42.68112563-10.279905-13.40291437-28.88783438-16.33073531-42.35581219-6.70145718L529.59945781 271.49576375c-13.40291437 10.279905-16.33073531 28.88783438-6.57133219 42.55099969a29.99390062 29.99390062 0 0 0 24.33344719 12.16672312zM589.52219562 173.57641438l-0.26025093-0.32531344c-10.279905-13.40291437-29.47339875-16.00542187-42.42087375-6.05082938L391.27617781 280.60454094c-13.40291437 10.3449675-16.07048438 29.47339875-5.98576781 42.55099969a30.20210062 30.20210062 0 0 0 24.39850875 12.16672312c6.11589281 0 12.03659813-1.95188062 18.15249094-5.98576781L582.4303625 216.12741406c13.92341625-9.95459156 17.04642469-28.62758344 7.09183312-42.55099968z" p-id="12594"></path></svg>