<?xml version="1.0" standalone="no"?><!DOCTYPE svg PUBLIC "-//W3C//DTD SVG 1.1//EN" "http://www.w3.org/Graphics/SVG/1.1/DTD/svg11.dtd"><svg t="1574824080507" class="icon" viewBox="0 0 1193 1024" version="1.1" xmlns="http://www.w3.org/2000/svg" p-id="12477" xmlns:xlink="http://www.w3.org/1999/xlink" width="149.125" height="128"><defs><style type="text/css"></style></defs><path d="M272.11358281 438.17132h181.73213438c13.02413625 0 23.47373437-5.52768563 26.65404656-14.08423969l17.71888313-33.9233325 166.96639781 173.55418875c4.99763344 4.619025 12.26691938 7.269285 19.76337 7.269285 2.12020781 0 4.16469469-0.22716563 6.2849025-0.60577312 7.72361531-1.59015656 13.70563219-5.98201594 16.35589219-11.96403281l53.61097968-118.50449532h154.09370625c19.61192625 0 36.04354031-6.66351187 44.97870282-18.32465718 7.11784219-9.23805 9.08660719-20.82347344 5.75485125-33.39327938-5.30052094-19.99053469-28.6985325-34.52910562-55.57974469-34.52910562H704.8632275c-12.11547563 0-23.62517719 6.96639844-26.65404656 15.82584l-20.444865 46.11452906-161.8930425-165.98201625c-6.28490344-5.90629406-16.43161406-8.556555-25.89682969-6.58779-7.79933719 1.59015656-13.78135313 5.90629406-16.35589219 11.66114531l-53.45953594 100.861335H269.84193125c-19.08187406 0-36.270705 7.11784219-46.03880812 19.08187406-6.89067656 8.40511125-9.38949375 18.32465719-7.19356313 29.00142 5.30052094 19.91481281 28.6985325 34.52910562 55.50402281 34.52910469z" p-id="12478"></path><path d="M1079.53431125 32.30288656V32H108.40321812C66.37766188 32.15144375 32.15144375 66.37766188 32 108.40321812v594.94557469c0 42.17699906 34.30194 76.47894 76.40321812 76.47894h436.83861844v122.66919094H367.67439688c-24.60955969 1.89304312-43.16138156 23.54945531-41.1926175 48.15901594 1.74159938 22.18646437 19.08187406 39.45101719 41.64694781 41.26833843h444.78939844c11.96403187-0.90866062 22.79223844-6.43634625 30.59157656-15.52295343a44.19876937 44.19876937 0 0 0 10.60104093-32.63606157c-1.74159938-22.11074344-19.08187406-39.45101719-41.64694781-41.1926175H634.66919094v-122.66919093h439.33743469c42.10127812-0.07572187 76.40321812-34.37766188 76.47893999-76.47894V108.47894c-0.07572187-40.208235-31.42451531-73.22290594-70.95125437-76.17605344z m-18.55182187 89.12446782v568.97302406H121.42735437V121.42735437h939.55513501z" p-id="12479"></path></svg>