<?xml version="1.0" standalone="no"?><!DOCTYPE svg PUBLIC "-//W3C//DTD SVG 1.1//EN" "http://www.w3.org/Graphics/SVG/1.1/DTD/svg11.dtd"><svg t="1574824057381" class="icon" viewBox="0 0 1056 1024" version="1.1" xmlns="http://www.w3.org/2000/svg" p-id="12141" xmlns:xlink="http://www.w3.org/1999/xlink" width="132" height="128"><defs><style type="text/css"></style></defs><path d="M434.00495375 883.92746094c-2.97320531 0-2.97320531 4.07951344-5.11667812 4.56352312-3.52635938-15.14260125-6.77614125-31.32236719-17.56265157-42.17802187-15.69575625-15.41917875-36.78476719-24.89194781-60.29382844-24.89194782-22.95590719 0-44.59807312 9.47276906-60.224685 24.89194782-9.47276906 9.74934656-11.33966531 24.33879281-15.41917781 37.54535437H70.37508594c-12.99912844 0-23.23248469 10.57907813-23.23248469 22.95590719 0 12.44597344 10.23335625 22.74847406 23.23248469 22.74847406h205.08199031c4.01036906 13.20656156 5.87726531 27.58857563 15.41917875 37.26877781 15.69575625 15.14260125 37.26877688 25.16852438 60.224685 25.16852438 23.50906125 0 44.59807312-10.02592313 60.29382844-25.16852438 10.78651031-10.78651031 13.48313812-27.03542063 17.56265156-42.17802281 2.21261719 1.10630906 2.21261719 4.909245 5.11667812 4.909245h550.11204282c12.99912844 0 22.95590719-10.30250063 22.95590718-22.74847406s-10.02592313-22.95590719-22.95590718-22.95590719l-550.18118719 0.06914438z m-54.83142844 50.82105937h-0.2765775c-6.98357437 7.05271875-16.73292 11.61624188-27.86515218 11.61624281s-20.81243437-4.56352406-27.86515313-11.61624281c-7.05271875-7.05271875-11.89281938-17.0094975-11.89281938-27.86515219 0-11.06308781 4.84010062-21.08901094 11.89281938-28.07258531 7.05271875-7.32929531 16.73292-11.33966531 27.86515312-11.33966531s20.81243437 4.01036906 27.86515219 11.33966531h0.2765775a40.54621688 40.54621688 0 0 1 11.33966438 28.07258531c0 10.78651031-4.56352406 20.81243437-11.33966438 27.86515219zM970.08070437 83.85877719A177.68701969 177.68701969 0 0 0 844.16893531 32.00055313H210.04656969C161.16155 32.00055313 116.84005438 51.70667844 84.41137906 83.85877719 51.98270281 116.28745344 32 161.16210406 32 209.77054625v401.79752063c0 48.88501969 19.98270281 93.75966937 52.41137906 126.18834562 32.42867625 31.87552219 76.75017188 51.85822406 125.63519063 51.85822406h634.19151c49.23074063 0 93.48309187-19.98270281 125.91176906-51.85822406 32.42867625-32.42867625 52.41137906-77.30332594 52.41137813-126.18834563V209.77054625c-0.06914437-48.60844219-20.05184625-93.48309187-52.4805225-125.91176906z m-23.71649531 527.70928969c0 27.79600781-11.61624188 53.24111062-30.008625 71.84092687-18.59981625 18.59981625-44.32149563 30.00862594-72.11750437 30.00862594H210.04656969c-27.86515219 0-53.44854281-11.33966531-71.84092688-30.00862594-18.66896062-18.66896062-30.00862594-44.04491812-30.008625-71.84092687V209.77054625c0-27.86515219 11.33966531-53.51768719 30.008625-71.84092688 18.39238313-18.39238313 44.04491812-29.73204844 71.84092688-29.73204843h634.19151c27.86515219 0 53.51768719 11.33966531 72.11750437 29.73204843 18.39238313 18.32323969 30.00862594 44.04491812 30.008625 71.84092688v401.79752063z m-406.43018906-315.29800313l-1.59031875-1.10630906-164.28685406-94.58940094c-3.80293688-3.24978188-8.08988344-4.28694656-12.99912844-4.28694656-12.44597344 0-22.67932969 10.30250063-22.67932969 23.23248469v383.12856093c0 3.24978188 0.82973156 7.32929531 3.24978188 11.33966438 6.43041937 10.57907813 19.98270281 14.58944719 31.04578969 8.08988343l165.60059624-95.90314312 165.94631813-95.69570906c3.52635938-1.86689625 6.49956375-4.56352406 8.64303656-8.6430375 6.49956375-10.85565469 2.14347281-24.61537031-8.0898825-30.76921313L539.93402 296.27006375z m-23.78563875 190.49254406h-0.55315406L384.08277031 562.68304812V258.9321425l131.58160125 75.71300719 1.10630813 0.55315406 130.82101406 75.64386375-131.4433125 75.92044031z" p-id="12142"></path></svg>