<?xml version="1.0" standalone="no"?><!DOCTYPE svg PUBLIC "-//W3C//DTD SVG 1.1//EN" "http://www.w3.org/Graphics/SVG/1.1/DTD/svg11.dtd"><svg t="1574824064291" class="icon" viewBox="0 0 1024 1024" version="1.1" xmlns="http://www.w3.org/2000/svg" p-id="12253" xmlns:xlink="http://www.w3.org/1999/xlink" width="128" height="128"><defs><style type="text/css"></style></defs><path d="M511.99974875 32c264.81459656 0 479.4663525 214.90288406 479.4663525 479.96860875 0.18834562 103.52756531-33.27447562 204.29272125-95.24033719 287.22778125-87.58093031 116.96291906-227.20816125 192.80361-384.22601531 192.80361h-0.12556406c-156.26446969-0.06278156-295.32666281-75.21287063-382.97037469-191.35962375A478.83225469 478.83225469 0 0 1 32.53339625 511.96860875C32.53339625 246.90288406 247.18515219 32 511.99974875 32z m0 887.92623094c224.94800906 0 408.02040375-183.19795969 408.02040469-408.33431438 0-225.13635469-183.00961312-408.33431438-408.02040469-408.33431437-224.94800906 0-407.89483969 183.13517719-407.89483969 408.33431437 0 225.13635469 183.00961312 408.33431438 407.89483969 408.33431438zM243.22988469 343.46164437c19.90190344 0 35.9741025 16.13498156 36.03688406 35.97410251 0 5.52481875-1.25564063 10.986855-3.70413938 15.946635a261.70688625 261.70688625 0 0 0-26.93349093 116.20953468c0 145.40317875 118.21855969 263.68452 263.43339281 263.68452094 145.27761469 0 263.43339187-118.28134219 263.43339187-263.68452094 0.12556406-40.30606219-9.10339406-80.04708656-26.87070843-116.20953469-8.78948438-17.83009594-1.44398625-39.42711375 16.38610968-48.21659812s39.42711375-1.44398625 48.21659813 16.38610969c22.66431187 46.01922656 34.40455125 96.68432438 34.27898719 147.97724156 0 185.14420219-150.48852281 335.6955075-335.44437844 335.69550656s-335.38159688-150.61408687-335.38159781-335.69550656a333.16539188 333.16539188 0 0 1 34.27898812-147.97724156c5.9642925-12.24249563 18.52069875-20.09024906 32.26996313-20.09024907z m268.76986406 276.24092532c-59.70570937 0-108.11065312-48.34216219-108.11065312-108.04787063 0-45.83088094 28.87973344-86.70198188 72.13655062-101.958015V211.36825625a35.9741025 35.9741025 0 1 1 71.948205 0v198.32842781c56.31547969 19.83912094 85.82303344 81.61663687 65.9839125 137.869335a108.09181875 108.09181875 0 0 1-101.958015 72.13655063z m0-144.08475563c-19.90190344 0-35.9741025 16.13498156-35.9741025 36.036885 0 19.90190344 16.13498156 35.9741025 36.036885 35.9741025 19.90190344 0 35.9741025-16.13498156 35.9741025-36.036885 0-19.90190344-16.13498156-36.03688406-36.036885-35.9741025z" p-id="12254"></path></svg>