<?xml version="1.0" standalone="no"?><!DOCTYPE svg PUBLIC "-//W3C//DTD SVG 1.1//EN" "http://www.w3.org/Graphics/SVG/1.1/DTD/svg11.dtd"><svg t="1574824119305" class="icon" viewBox="0 0 1024 1024" version="1.1" xmlns="http://www.w3.org/2000/svg" p-id="12930" xmlns:xlink="http://www.w3.org/1999/xlink" width="128" height="128"><defs><style type="text/css"></style></defs><path d="M502.67783656 533.20335125c140.99009906 0 255.71972625-112.41431813 255.71972625-250.60167562S643.66793562 32 502.67783656 32 246.95811125 144.41431813 246.95811125 282.60167563s114.66869719 250.60167562 255.71972531 250.60167562z m0-427.84463063c100.53313031 0 182.36100562 79.51256625 182.36100563 177.242955S603.21096687 459.84463063 502.67783656 459.84463063 320.31683188 380.33206438 320.31683188 282.60167563s81.76694625-177.242955 182.36100468-177.242955zM602.8453925 572.25894875h-183.39680156c-175.71972562 0-303.24447844 121.85833969-303.24447844 289.65727406v15.29322094c0 54.95811094 37.04493563 90.05331281 110.03808094 104.31073875 53.3739525 10.41888844 122.89413562 10.41888844 203.38156875 10.41888844h164.69154656c75.36938344 0 146.53465313 0 200.70068531-10.41888844 74.82102094-14.37928406 112.71896438-49.535415 112.71896438-104.37166781v-15.71972532c-1.88880469-167.49428812-130.14470719-289.16983969-304.88956594-289.16984062z m-183.39680156 73.35872063h183.39680156c134.89718156 0 230.12947406 89.01751687 231.59177437 216.29855343v15.29322094c0 41.43183563-133.13023594 41.43183563-240.06092906 41.43183563H429.62376219c-76.64889562 0-142.87890281 0-189.30693094-9.07844625-50.81492719-9.931455-50.81492719-25.10281781-50.81492719-32.35338938v-15.29322094c0.06092906-127.34196469 94.56207188-216.2985525 229.94668688-216.29855344z" p-id="12931"></path></svg>