<?xml version="1.0" standalone="no"?><!DOCTYPE svg PUBLIC "-//W3C//DTD SVG 1.1//EN" "http://www.w3.org/Graphics/SVG/1.1/DTD/svg11.dtd"><svg t="1565226283514" class="icon" viewBox="0 0 1024 1024" version="1.1" xmlns="http://www.w3.org/2000/svg" p-id="2469" xmlns:xlink="http://www.w3.org/1999/xlink" width="200" height="200"><defs><style type="text/css"></style></defs><path d="M512 7.68C233.472 7.68 7.68 233.472 7.68 512s225.792 504.32 504.32 504.32 504.32-225.792 504.32-504.32S790.528 7.68 512 7.68zM288.44544 860.48256H229.8624V421.84704c-24.41728 39.57248-50.10944 76.06272-77.09184 109.4656-7.1936-22.09792-15.67744-45.22496-25.43616-69.38112 80.68096-108.94848 141.32736-230.23616 181.92896-363.85792l62.44352 20.8128c-25.44128 71.43936-53.1968 137.22112-83.26144 197.3504v544.24576z m561.98144-112.54784c-90.44992-89.1648-162.14528-207.23712-215.07584-354.2272v466.77504h-58.58816V384.8448c-47.7952 136.448-122.56768 260.31104-224.32768 371.56864-13.3632-16.44032-28.26752-33.39776-44.71296-50.88256 107.92448-112.54784 189.12256-238.72 243.59936-378.50624H347.80672v-55.5008h228.95104V102.70208h58.58816v168.82688h236.66176v55.5008h-213.15072c55.50592 153.66656 137.08288 274.95936 244.7616 363.86304-20.0448 20.03968-37.77536 39.05536-53.19168 57.04192z" fill="#F65E5E" p-id="2470"></path></svg>